<?xml version="1.0" encoding="iso-8859-1"?>
<!-- Generator: Adobe Illustrator 19.0.0, SVG Export Plug-In . SVG Version: 6.00 Build 0)  -->
<svg version="1.1" id="Capa_1" xmlns="http://www.w3.org/2000/svg" xmlns:xlink="http://www.w3.org/1999/xlink" x="0px" y="0px"
	 viewBox="0 0 511.997 511.997" style="enable-background:new 0 0 511.997 511.997;" xml:space="preserve">
<path style="fill:#FF9800;" d="M342.508,320.394c0,0,21.332,39.663,27.392,70.17c0,0-86.821,13.61-200.935-30.732S0,246.83,0,246.83
	c25.068-18.41,67.585-33.264,67.585-33.264L342.508,320.394z"/>
<path style="fill:#E68900;" d="M0,246.829c0,0,9.291,11.625,28.164,28.39c22.56-31.41,64.063-36.165,64.063-36.165l-9.674-19.672
	l-14.967-5.816C67.585,213.565,25.068,228.418,0,246.829z"/>
<path style="fill:#FFAD33;" d="M193.159,297.573c91.88,35.702,149.349,22.821,149.349,22.821
	c29.5-75.918-8.129-161.376-84.047-190.876l0,0c-75.918-29.5-161.376,8.129-190.876,84.047
	C67.585,213.565,101.279,261.871,193.159,297.573z"/>
<path style="fill:#E69C2E;" d="M278.833,139.267c-6.437-3.708-13.235-6.976-20.372-9.75l0,0
	c-75.918-29.5-161.376,8.129-190.876,84.047c0,0,7.378,10.577,24.641,25.489C125.114,166.639,202.427,126.725,278.833,139.267z"/>
<path style="fill:#E1E4E6;" d="M414.469,303.873c-2.519,48.139-51.513,47.833-94.525,45.583l1.319-25.195l17.74-39.175l62.389,3.265
	L414.469,303.873z"/>
<path style="fill:#CFD8DC;" d="M343.587,309.353c41.89,2.192,90.99,5.242,93.365-40.165l-11.161-15.111l-77.365,3.122l-12.6,18.315
	L343.587,309.353z"/>
<path style="fill:#E1E4E6;" d="M467.246,225.385c-2.219,42.399-35.775,55.135-112.315,51.13l-14.169-25.038l10.967-39.283
	l92.77,0.551L467.246,225.385z"/>
<path style="fill:#CFD8DC;" d="M360.986,235.383c115.327,4.811,128.915-17.153,130.594-49.246l-8.346-11.145l-119.786,13.339
	l-15.142,30.83L360.986,235.383z"/>
<path style="fill:#ECEFF1;" d="M303.84,358.763c-3.535-0.185-7.031-1.533-9.872-4.08c-6.593-5.91-7.159-16.039-1.271-22.645
	c0.617-0.704,36.33-42.075,36.367-105.462c0.015-25.608,9.608-43.073,28.513-51.91c14.998-7.011,33.906-7.548,53.924-8.117
	c24.615-0.698,52.515-1.491,76.977-14.31c7.858-4.116,17.565-1.086,21.681,6.771c4.118,7.857,1.086,17.565-6.771,21.681
	c-31.039,16.264-64.273,17.208-90.976,17.966c-42.819,1.217-51.212,3.576-51.227,27.935
	c-0.046,76.333-42.722,124.821-44.539,126.848C313.274,357.208,308.524,359.008,303.84,358.763z"/>
<g>
</g>
<g>
</g>
<g>
</g>
<g>
</g>
<g>
</g>
<g>
</g>
<g>
</g>
<g>
</g>
<g>
</g>
<g>
</g>
<g>
</g>
<g>
</g>
<g>
</g>
<g>
</g>
<g>
</g>
</svg>
